inDegrees=no
num_controls=7
num_derivatives=13
num_iterations=98
num_multipliers=7
num_parameters=0
num_slacks=7
num_states=26
objective=0.445593
objective_accelerations=0.057294
objective_balance=0.003594
objective_effort=0.023078
objective_height=0.356154
objective_ligament=0.005472
solver_duration=1444.501602
status=Solve_Succeeded
success=true
DataType=double
version=3
OpenSimVersion=4.5
endheader
time	/jointset/ground_pelvis/pelvis_tilt/value	/jointset/ground_pelvis/pelvis_tx/value	/jointset/ground_pelvis/pelvis_ty/value	/jointset/hip_l/hip_flexion_l/value	/jointset/hip_l/hip_adduction_l/value	/jointset/hip_l/hip_rotation_l/value	/jointset/back/lumbar_extension/value	/jointset/patellofemoral_l/patellar_flexion_l/value	/jointset/knee_l/knee_flexion_l/value	/jointset/knee_l/knee_adduction_l/value	/jointset/knee_l/knee_rotation_l/value	/jointset/ankle_l/ankle_angle_l/value	/jointset/subtalar_l/subtalar_angle_l/value	/jointset/ground_pelvis/pelvis_tilt/speed	/jointset/ground_pelvis/pelvis_tx/speed	/jointset/ground_pelvis/pelvis_ty/speed	/jointset/hip_l/hip_flexion_l/speed	/jointset/hip_l/hip_adduction_l/speed	/jointset/hip_l/hip_rotation_l/speed	/jointset/back/lumbar_extension/speed	/jointset/patellofemoral_l/patellar_flexion_l/speed	/jointset/knee_l/knee_flexion_l/speed	/jointset/knee_l/knee_adduction_l/speed	/jointset/knee_l/knee_rotation_l/speed	/jointset/ankle_l/ankle_angle_l/speed	/jointset/subtalar_l/subtalar_angle_l/speed	/forceset/tau_hip_flexion_l	/forceset/tau_hip_adduction_l	/forceset/tau_hip_rotation_l	/forceset/tau_knee_flexion_l	/forceset/tau_ankle_angle_l	/forceset/tau_subtalar_angle_l	/forceset/tau_lumbar_extension	lambda_cid13_p0	lambda_cid13_p1	lambda_cid13_p2	lambda_cid13_p3	lambda_cid13_p4	lambda_cid13_p5	lambda_cid14_p0	/jointset/ground_pelvis/pelvis_tilt/accel	/jointset/ground_pelvis/pelvis_tx/accel	/jointset/ground_pelvis/pelvis_ty/accel	/jointset/hip_l/hip_flexion_l/accel	/jointset/hip_l/hip_adduction_l/accel	/jointset/hip_l/hip_rotation_l/accel	/jointset/back/lumbar_extension/accel	/jointset/patellofemoral_l/patellar_flexion_l/accel	/jointset/knee_l/knee_flexion_l/accel	/jointset/knee_l/knee_adduction_l/accel	/jointset/knee_l/knee_rotation_l/accel	/jointset/ankle_l/ankle_angle_l/accel	/jointset/subtalar_l/subtalar_angle_l/accel	gamma_cid13_p0	gamma_cid13_p1	gamma_cid13_p2	gamma_cid13_p3	gamma_cid13_p4	gamma_cid13_p5	gamma_cid14_p0
1	-0.557545789342895	-0.0845678558547851	0.5745611258864872	1.842580331459816	-0.4683203823722924	0.0149112072925797	-0.2617806951553233	1.375757921051229	1.37575792105159	-0.09152921244628791	-0.1745252168366982	0.2107182247633354	-0.01674014474665557	-0.01689969977490871	0.01074775117093365	0.002557007167527818	-0.001824896079886073	-0.002433801029352751	0.003496949452633373	3.087326690058921e-05	0.00208467070625607	0.002084670706255903	-0.005130512767643458	-0.0001945547344272273	0.02077418141252835	0.008856182752884799	-0.3376210514233902	0.01650471511180451	-0.0002324934951739603	-0.2991148208168201	0.04246512068138444	0.03001785314123645	0.2872807318739435	-26.33565125691401	-9.132685735904802	1.927776691949068	6.664276705073921	-642.6533160291174	-44.69140754528914	-1.628424522121398	1.560195549240491	0.2655662690126484	1.962371625472701	-6.854990089039809	-0.08849485943281943	-2.355861135506993	-0.02072687264002416	-5.255217529942545	-5.255217529942565	-0.5733627243943572	-0.02950333959333746	-0.635159390758205	-0.4426266365019569	4.994589850363802e-09	1.864671275590581e-08	-1.38266140567006e-08	3.085937384054267e-09	-1.59017000839326e-09	2.188477988702473e-08	2.924432598164287e-09
1.01	-0.5576377488182366	-0.08444716226414956	0.5746846675933193	1.842220675397742	-0.4683480916383613	0.01482710607506228	-0.2617803698991088	1.37551611427566	1.375516114276215	-0.09160627220977886	-0.174527361558729	0.2108943634480189	-0.01667227023172499	-0.001492571360917942	0.01339293121962827	0.0221475621950913	-0.07009718723625091	-0.003102447685284557	-0.02031189739413409	3.567360577305901e-05	-0.05044548463368623	-0.05044548463368268	-0.0102805639455507	-0.0002289756947531009	0.014446390606138	0.004721352168181409	-0.3375339998312141	0.01662092902851726	-0.000250841189007497	-0.2989525133881784	0.04228462653435287	0.03003576902940201	0.2872167253726012	-26.38118516505907	-9.135963709603139	1.932262577801218	6.612436577047341	-642.5176896545848	-44.6995078492294	-1.633887982960499	1.530913904685857	0.2642893882536879	1.956829161878767	-6.811980688136997	-0.05521012508194106	-2.392607895690658	0.01130783157301576	-5.251831417467093	-5.251831417466541	-0.4856981240122212	0.01040900055730034	-0.6326629937661796	-0.3985215792300995	-3.597538872955863e-09	9.840575968268765e-09	2.977045214428592e-08	4.366833749662386e-09	-1.228673132435177e-08	7.342646611669643e-08	-9.576980946103208e-09
1.02	-0.5575756485259964	-0.0842999577699359	0.575004001194523	1.841178570012266	-0.4683823194822712	0.01450507410178557	-0.261779951770621	1.374749022570404	1.37474902257115	-0.0917348068469581	-0.1745296863953825	0.2110070094110008	-0.01664566608459654	0.01391225374137302	0.01604993188655622	0.04171538604187988	-0.1383147607607025	-0.003737516597557191	-0.04408920169806372	4.9447721531193e-05	-0.1029723152315097	-0.1029723152315031	-0.01542548750439106	-0.0002305776626993547	0.008075637072278263	0.0006021091924543968	-0.3374469482390364	0.01673714294521825	-0.0002691888828547728	-0.2987902059595375	0.04210413238731744	0.03005368491755057	0.2871527188712631	-26.43245729473505	-9.13829565715278	1.936664713394217	6.581397145401042	-642.4632038510089	-44.68537035808037	-1.650591856523296	1.55973488690053	0.2679303926593066	1.957825389317722	-6.844046562657152	-0.08177931070095497	-2.349552626939397	-0.01893211726290617	-5.254552581518778	-5.254552581518935	-0.5723372005809667	-0.02293954111735538	-0.6437519362520866	-0.4395091147066461	-1.12108374767109e-08	3.158573312164809e-09	7.406577994205288e-08	6.138131295789959e-09	-2.233592549301781e-08	1.227919440907949e-07	-2.123162970516836e-08
1.03	-0.5573594688564248	-0.08412609867540684	0.5755188244614451	1.839454716079845	-0.4684225779221631	0.01394560550251511	-0.2617793744990713	1.373456759493471	1.373456759494084	-0.09191470468349779	-0.1745316803726145	0.2110556681743927	-0.01666001881772615	0.02932682977225667	0.01872630268945534	0.06123802013013114	-0.2064308696706043	-0.004292428209508829	-0.06778101942672229	6.590276986942607e-05	-0.1554720202805085	-0.1554720202805083	-0.02054605295050308	-0.0001428450716991529	0.001642647237925899	-0.00345305818659883	-0.3370586555102822	0.01693193556654774	-0.0003208936593024723	-0.298488014701936	0.04197913450433772	0.0301340107146328	0.2868801476937811	-26.4460358590179	-9.181742076538539	1.956085565036564	6.489808967522592	-642.1080864523043	-44.73375978909472	-1.678742952442463	1.532788013582992	0.2681543682768439	1.947788800154178	-6.791623679956128	-0.03909660853423516	-2.37549190525315	0.01191874305290007	-5.24643083930799	-5.246430839308877	-0.480723472799096	0.02846535234143002	-0.6450918864092363	-0.3855943398621837	-1.88141480180214e-08	-3.501754505862265e-09	1.183682328581543e-07	7.914432935596304e-09	-3.237851387446659e-08	1.721352158582039e-07	-3.287763800724165e-08
